<svg xmlns="http://www.w3.org/2000/svg" width="105" height="32" fill="none" aria-label="Code button">
  <rect width="105" height="32" x="0" y="0" fill="#29903b" stroke="#49a158" rx="10"/>
  <svg width="16" height="16" fill="#fff" aria-hidden="true" class="octicon octicon-code hide-sm" transform="translate(11.2 8)" viewBox="0 0 16 16">
    <path d="m11.3 3.2 4.2 4.3a1 1 0 0 1 0 1l-4.2 4.3a.7.7 0 0 1-1.3-.3l.2-.8L14 8l-3.7-3.7a.7.7 0 0 1 .3-1.3l.8.2m-6.6 0a1 1 0 0 1 1 0 1 1 0 0 1 0 1L2.2 8l3.7 3.7a.7.7 0 0 1-.3 1.3l-.8-.2L.5 8.5a1 1 0 0 1 0-1Z"/>
  </svg>
  <text x="43" y="10" fill="#fff" alignment-baseline="middle" dominant-baseline="middle" font-family="Arial, sans-serif" font-size="16" text-anchor="middle" transform="translate(11.2 8)">Code</text>
  <svg width="16" height="16" fill="#fff" aria-hidden="true" class="octicon octicon-triangle-down" transform="translate(79.2 8)" viewBox="0 0 16 16">
    <path d="m4.4 7.4 3.4 3.4h.4l3.4-3.4a.3.3 0 0 0-.2-.4H4.6a.3.3 0 0 0-.2.4"/>
  </svg>
</svg>
