<svg xmlns="http://www.w3.org/2000/svg" width="128" height="32">
  <rect width="128" height="32" fill="#010409" rx="10"/>
  <g transform="translate(8 8)">
    <svg width="16" height="16" fill="#848b93" display="inline-block" style="vertical-align:text-bottom" viewBox="0 0 16 16">
      <path d="M3.5 1.8v11.5l.1.2a.8.8 0 0 1-.7 1.3 2 2 0 0 1-.9-1.6V1.8Q2.1.1 3.8 0h5.5q.8 0 1.3.5l2.9 3q.5.4.5 1.2v8.6a2 2 0 0 1-1.7 1.7h-.6a.8.8 0 0 1 0-1.5h.6l.2-.2V4.5l-3-3H7.3a.8.8 0 0 1 0 1.5h-.5a.8.8 0 0 1 0-1.5h-3zm3.8 8.7h.5q1.6.2 1.7 1.8v3a1 1 0 0 1-.7.7H6.2a1 1 0 0 1-.7-.7v-3q.1-1.7 1.8-1.8M6 5.3a1 1 0 0 1 .8-.8h.5a.8.8 0 0 1 0 1.5h-.5a1 1 0 0 1-.8-.7m.8 2.2h.5a.8.8 0 0 1 0 1.5h-.5a.8.8 0 0 1 0-1.5M8 6.8a1 1 0 0 1 .8-.8h.4a.8.8 0 0 1 0 1.5h-.4a1 1 0 0 1-.8-.7M8.8 3h.4a.8.8 0 0 1 0 1.5h-.4a.8.8 0 0 1 0-1.5M8 9.8a1 1 0 0 1 .8-.8h.4a.8.8 0 0 1 0 1.5h-.4a1 1 0 0 1-.8-.7m-1 2.4v2.3h1v-2.2l-.2-.3h-.5z"/>
    </svg>
    <text x="20" y="10" fill="#fff" alignment-baseline="middle" dominant-baseline="middle" font-family="Arial, sans-serif" font-size="14">
      Download ZIP
    </text>
  </g>
</svg>
