<svg xmlns="http://www.w3.org/2000/svg" viewBox="0 0 275 128">
  <path fill="#ae0706" d="M42.9 1.1c1 .1 4.8 3 6 3.9-1.4 2.5-3.7 5.3-5.3 8-8.3 13.7-16.2 29.6-15.4 46 .1 4 .8 9.2 5.4 10.5 8.7 2 13.6-4 18-10.4 8.8-13.4 12.9-28.8 19.3-43.3 1-3.3 6.3-7 8-2.1 3 8.2-5 18.3-8.5 25.3-1 2-1.7 4.6-2.4 6.5q-4.2 12.9-7.3 26c-.9 3.8-2.2 11.9-3.4 15.1 5.8.5 12 .8 17.7 1.7a95 95 0 0 1 30.3 10.5l-1.7 3.6a100 100 0 0 0-25.4-8.3q-8.1-1.7-16.3-2-2.8 0-5.5-.5a63 63 0 0 1-13 25.6c-8.6 9.7-28.2 14.1-38.5 4.5-6.4-6-5.6-15.4.4-21.3C17.1 89 34.8 87.3 50.5 87c1.7-8 4.3-18.5 6.5-26.4-1.8 2.6-5.2 6.6-7.3 9-4.3 4.8-9.2 10.3-16 11-9.7 1-15.8-8.4-16-17.5-.3-20.4 11.9-47 25.2-62M16.3 116.5q5.9 3.5 12.4 1.6c11.5-3 17.1-15 20-25.5l-.4-.2a54 54 0 0 0-28.5 7c-5.7 3.5-10 12.3-3.5 17.1"/>
  <path fill="#ae0706" d="M86.2 32c1.3.1 3.8 1.6 5 2.3-1 1.9-2 5.4-2.8 7.4-2.3 6.7-4 13.5-6.4 20.2.8-.9 2.9-4.6 3.8-5.8 8.1-10.7 13.3-15 26.3-17l-.4 7.8c-4.3.2-7 .5-10.8 2.8-2.3 1.3-6 4-6.6 6.6-.6 4 1.4 8.8 3.2 12.2 5 9 11.2 8.8 19.5 3.9 1-3 2-7 2.9-10.1q2.1-8.3 4.7-16.4c.7-2.5 2-6.5 3.1-8.8 2 .7 5.7 1.6 6.9 3.1-.2 1.3-1.7 5.8-2.2 7.4l-2.9 9.7c1-1.1 2-3 3-4.4 5.8-9.4 19.7-22 29.7-10 2.8 3.3 2.8 10.7 2 15.1-2.6 14-15 28.2-30.5 24.9-1.2-.3-3.7-.5-4.4-1.5q-.2-1.1.7-2.3l1.5-3 4.9.8c3.6.6 6.7.3 9.7-2 4.7-3.4 7.9-9.8 8.7-15.5.5-3 .4-6.5-1.5-9a7 7 0 0 0-4.8-2.8c-2.4-.4-4.8.8-6.7 2.3-13.8 10.7-23.8 46.4-27.5 63q-1.4 5.4-2.3 11c-2-1-5.5-2.3-7.6-3 1-3 2-7.2 2.9-10.4l5.4-20.1c.8-3 2.3-9.3 3.3-11.7-6.2 3.7-13.8 8.5-20.2 2.3-4-3.8-8.2-11-8.4-16.6-4.2 5.6-7.5 10-11.2 15.8l-7-1.2c4.2-13.4 8.6-35.7 17-47"/>
  <path fill="#ae0706" d="M207.8 5.6q2.2.3 4 1c2 1 2.5 2 2.5 4-.2 7.1-4.1 13.8-6.4 20.3-3.7 10.5-12 39.4-8 49.2 2 4.9 4.4 5.5 8.7 7.4q1 .4 1.4 1.4.1.8-.2 1.4-.9 1.5-2.7 2.2c-2 .7-4.1.2-6-.7a17 17 0 0 1-7.6-9.2c-8-21.4 12.2-58.8 10.3-64.5-5-2-12.2 16-13.9 19.7L179 63c-9 18.2-21.5 38.3-42.3 44.4a43 43 0 0 1-17.3.9c.2-.6 1-4.9 1.7-4.8 12 1 20-1.6 29.5-9.1 23.3-18.8 26.3-49.6 41.6-73.7 4-6.5 7.8-13.3 15.7-15.2m15.1 16c1.5.2 4.2 1.4 4.7 3-.2 2-2.2 9.4-3.5 10.6-1.6-.6-3.7-1.7-5.6-2.5 1.8-3.5 2.8-7.5 4.4-11"/>
  <path fill="#ae0706" d="m249.1 52.7-1.4.8a20 20 0 0 0-8.8 12.4c-.8 3.5-1 7.7 1 11 2.8 4.3 8 4.6 12.1 2q4.9-3.3 6.4-9 1.3-5.1.4-10.5c-2-10.2-16.5-30-14.5-39.1q1.2-5.1 5.7-8c6.7-4.3 17.5-3.8 25-2.2v2.8c-.4.6-.9 2.3-1.3 2.4-5 .1-10.1-1.2-15.1.6-3.5 1.3-5.7 6-4.8 9.4a192 192 0 0 0 10 23.7c9.2 19.2-6.1 46.2-28.6 39.7-3.5-1-5.7-4.8-7.1-8.2-13.5 7.3-19-.2-19-13.5-.2-9.8 3.7-18.6 7.1-27.6l5.3 2.7-2.2 6.8c-2 7.2-5.6 18-1.4 25 2.5 4.1 7.3 1.4 10-.7l.5-1.9a37 37 0 0 1 19.4-23.5z"/>
</svg>

